<svg width="517" height="107" viewBox="0 0 517 107" fill="none" xmlns="http://www.w3.org/2000/svg">
<path d="M121.549 75V41.65H129.649V68.65H144.149V75H121.549ZM160.483 75.75C157.95 75.75 155.7 75.2333 153.733 74.2C151.8 73.1333 150.283 71.6333 149.183 69.7C148.117 67.7333 147.583 65.4 147.583 62.7C147.583 58.3 148.667 54.9 150.833 52.5C153.033 50.0667 156.167 48.85 160.233 48.85C163.033 48.85 165.283 49.45 166.983 50.65C168.717 51.85 169.983 53.6 170.783 55.9C171.583 58.2 171.967 61 171.933 64.3H152.683L151.883 59.55H165.783L164.683 61.9C164.65 59.2 164.267 57.3 163.533 56.2C162.8 55.1 161.6 54.55 159.933 54.55C159 54.55 158.15 54.7833 157.383 55.25C156.65 55.7167 156.067 56.5 155.633 57.6C155.233 58.6667 155.033 60.15 155.033 62.05C155.033 64.45 155.6 66.3 156.733 67.6C157.9 68.9 159.75 69.55 162.283 69.55C163.217 69.55 164.133 69.45 165.033 69.25C165.967 69.0167 166.833 68.75 167.633 68.45C168.433 68.15 169.117 67.8833 169.683 67.65V74.05C168.483 74.55 167.133 74.95 165.633 75.25C164.167 75.5833 162.45 75.75 160.483 75.75ZM188.96 75.65C187.16 75.65 185.46 75.3833 183.86 74.85C182.26 74.3167 180.843 73.5167 179.61 72.45C178.376 71.3833 177.41 70.0333 176.71 68.4C176.01 66.7667 175.66 64.8667 175.66 62.7C175.66 60.4 175.993 58.4 176.66 56.7C177.326 54.9667 178.243 53.5333 179.41 52.4C180.61 51.2667 182.01 50.4167 183.61 49.85C185.21 49.2833 186.976 49 188.91 49C190.276 49 191.676 49.15 193.11 49.45C194.576 49.7167 195.86 50.1 196.96 50.6V57C195.793 56.4667 194.643 56.0333 193.51 55.7C192.41 55.3333 191.276 55.15 190.11 55.15C188.01 55.15 186.31 55.6833 185.01 56.75C183.743 57.7833 183.11 59.4833 183.11 61.85C183.11 64.35 183.676 66.2333 184.81 67.5C185.943 68.7667 187.826 69.4 190.46 69.4C191.693 69.4 192.876 69.1833 194.01 68.75C195.176 68.3167 196.176 67.8667 197.01 67.4V73.75C195.843 74.35 194.626 74.8167 193.36 75.15C192.093 75.4833 190.626 75.65 188.96 75.65ZM212.557 76C209.624 76 207.441 75.3167 206.007 73.95C204.574 72.55 203.857 70.5833 203.857 68.05V55.4H200.157V49.7H203.857V42.75H211.657V49.7H217.207V55.4H211.657V67.1C211.657 67.9667 211.841 68.6167 212.207 69.05C212.574 69.45 213.191 69.65 214.057 69.65C214.557 69.65 215.107 69.55 215.707 69.35C216.307 69.15 216.807 68.9 217.207 68.6V75C216.507 75.3667 215.741 75.6167 214.907 75.75C214.107 75.9167 213.324 76 212.557 76ZM234.762 75.75C232.428 75.75 230.362 75.3833 228.562 74.65C226.762 73.9167 225.362 72.8 224.362 71.3C223.362 69.7667 222.862 67.7833 222.862 65.35V49.7H230.312V64.75C230.312 66.35 230.662 67.55 231.362 68.35C232.095 69.1167 233.245 69.5 234.812 69.5C236.412 69.5 237.562 69.1167 238.262 68.35C238.962 67.55 239.312 66.35 239.312 64.75V49.7H246.312V65.35C246.312 68.95 245.278 71.5833 243.212 73.25C241.145 74.9167 238.328 75.75 234.762 75.75ZM252.891 75V52.35C253.357 51.95 254.191 51.5 255.391 51C256.591 50.4667 257.957 50 259.491 49.6C261.057 49.1667 262.624 48.95 264.191 48.95C265.757 48.95 266.991 49.0667 267.891 49.3C268.791 49.5333 269.474 49.8333 269.941 50.2V55.65C269.374 55.5167 268.657 55.4167 267.791 55.35C266.924 55.2833 266.024 55.25 265.091 55.25C264.157 55.2167 263.274 55.2167 262.441 55.25C261.607 55.2833 260.907 55.35 260.341 55.45V75H252.891ZM284.849 75.75C282.315 75.75 280.065 75.2333 278.099 74.2C276.165 73.1333 274.649 71.6333 273.549 69.7C272.482 67.7333 271.949 65.4 271.949 62.7C271.949 58.3 273.032 54.9 275.199 52.5C277.399 50.0667 280.532 48.85 284.599 48.85C287.399 48.85 289.649 49.45 291.349 50.65C293.082 51.85 294.349 53.6 295.149 55.9C295.949 58.2 296.332 61 296.299 64.3H277.049L276.249 59.55H290.149L289.049 61.9C289.015 59.2 288.632 57.3 287.899 56.2C287.165 55.1 285.965 54.55 284.299 54.55C283.365 54.55 282.515 54.7833 281.749 55.25C281.015 55.7167 280.432 56.5 279.999 57.6C279.599 58.6667 279.399 60.15 279.399 62.05C279.399 64.45 279.965 66.3 281.099 67.6C282.265 68.9 284.115 69.55 286.649 69.55C287.582 69.55 288.499 69.45 289.399 69.25C290.332 69.0167 291.199 68.75 291.999 68.45C292.799 68.15 293.482 67.8833 294.049 67.65V74.05C292.849 74.55 291.499 74.95 289.999 75.25C288.532 75.5833 286.815 75.75 284.849 75.75ZM301.475 75V52.35C301.941 51.95 302.775 51.5 303.975 51C305.175 50.4667 306.541 50 308.075 49.6C309.641 49.1667 311.208 48.95 312.775 48.95C314.341 48.95 315.575 49.0667 316.475 49.3C317.375 49.5333 318.058 49.8333 318.525 50.2V55.65C317.958 55.5167 317.241 55.4167 316.375 55.35C315.508 55.2833 314.608 55.25 313.675 55.25C312.741 55.2167 311.858 55.2167 311.025 55.25C310.191 55.2833 309.491 55.35 308.925 55.45V75H301.475ZM323.112 75V41.65H331.212V68.65H345.712V75H323.112ZM361.996 75.75C357.729 75.75 354.513 74.6167 352.346 72.35C350.213 70.05 349.146 66.6833 349.146 62.25C349.146 57.4833 350.229 54.0667 352.396 52C354.596 49.9 357.796 48.85 361.996 48.85C364.829 48.85 367.196 49.3333 369.096 50.3C371.029 51.2333 372.479 52.6833 373.446 54.65C374.446 56.6167 374.946 59.15 374.946 62.25C374.946 66.6833 373.829 70.05 371.596 72.35C369.363 74.6167 366.163 75.75 361.996 75.75ZM361.996 69.8C363.229 69.8 364.246 69.5167 365.046 68.95C365.879 68.35 366.496 67.5 366.896 66.4C367.329 65.2667 367.546 63.8833 367.546 62.25C367.546 60.3833 367.329 58.9167 366.896 57.85C366.496 56.75 365.879 55.9667 365.046 55.5C364.213 55 363.196 54.75 361.996 54.75C360.729 54.75 359.696 55 358.896 55.5C358.096 56 357.496 56.8 357.096 57.9C356.729 58.9667 356.546 60.4167 356.546 62.25C356.546 64.7833 356.979 66.6833 357.846 67.95C358.746 69.1833 360.129 69.8 361.996 69.8ZM391.988 75.75C389.655 75.75 387.588 75.3833 385.788 74.65C383.988 73.9167 382.588 72.8 381.588 71.3C380.588 69.7667 380.088 67.7833 380.088 65.35V49.7H387.538V64.75C387.538 66.35 387.888 67.55 388.588 68.35C389.321 69.1167 390.471 69.5 392.038 69.5C393.638 69.5 394.788 69.1167 395.488 68.35C396.188 67.55 396.538 66.35 396.538 64.75V49.7H403.538V65.35C403.538 68.95 402.505 71.5833 400.438 73.25C398.371 74.9167 395.555 75.75 391.988 75.75ZM410.117 51.85C410.751 51.5167 411.584 51.1833 412.617 50.85C413.651 50.4833 414.784 50.1667 416.017 49.9C417.251 49.6333 418.484 49.4167 419.717 49.25C420.984 49.0833 422.151 49 423.217 49C425.484 49 427.417 49.3 429.017 49.9C430.617 50.4667 431.834 51.4 432.667 52.7C433.534 54 433.967 55.7667 433.967 58V75H426.517V59.5C426.517 58.8667 426.417 58.2833 426.217 57.75C426.051 57.2167 425.784 56.7667 425.417 56.4C425.051 56 424.551 55.7 423.917 55.5C423.284 55.2667 422.517 55.15 421.617 55.15C420.851 55.15 420.084 55.25 419.317 55.45C418.551 55.6167 417.967 55.8 417.567 56V75H410.117V51.85ZM450.286 75.75C447.986 75.6167 446.003 75.0833 444.336 74.15C442.703 73.2167 441.419 71.85 440.486 70.05C439.586 68.2167 439.136 65.9167 439.136 63.15C439.136 60.35 439.486 58.0333 440.186 56.2C440.886 54.3333 441.853 52.8833 443.086 51.85C444.353 50.8167 445.869 50.0833 447.636 49.65C449.403 49.2167 451.369 49 453.536 49C455.636 49 457.469 49.2667 459.036 49.8C460.603 50.3333 461.819 51.1 462.686 52.1C463.553 53.1 463.986 54.3333 463.986 55.8V75.3C463.986 77.0667 463.703 78.6167 463.136 79.95C462.569 81.3167 461.719 82.45 460.586 83.35C459.486 84.2833 458.136 84.9833 456.536 85.45C454.969 85.9167 453.153 86.15 451.086 86.15C448.853 86.15 446.936 85.9833 445.336 85.65C443.769 85.35 442.569 84.9667 441.736 84.5V77.95C442.236 78.15 442.969 78.4167 443.936 78.75C444.903 79.0833 445.986 79.35 447.186 79.55C448.386 79.7833 449.586 79.9 450.786 79.9C452.353 79.9 453.553 79.6833 454.386 79.25C455.253 78.8167 455.853 78.2333 456.186 77.5C456.519 76.7667 456.686 75.9333 456.686 75V70.9L458.136 71.95C457.603 72.7167 456.969 73.3833 456.236 73.95C455.503 74.5167 454.636 74.95 453.636 75.25C452.669 75.5833 451.553 75.75 450.286 75.75ZM452.186 70.15C453.053 70.15 453.853 70.0667 454.586 69.9C455.319 69.7 456.019 69.4167 456.686 69.05V57.45C456.686 56.75 456.486 56.2167 456.086 55.85C455.686 55.4833 455.186 55.2333 454.586 55.1C453.986 54.9667 453.353 54.9 452.686 54.9C451.153 54.9 449.936 55.2333 449.036 55.9C448.169 56.5667 447.536 57.5 447.136 58.7C446.769 59.8667 446.586 61.2 446.586 62.7C446.586 65 447.103 66.8167 448.136 68.15C449.169 69.4833 450.519 70.15 452.186 70.15ZM481.675 75.75C479.141 75.75 476.891 75.2333 474.925 74.2C472.991 73.1333 471.475 71.6333 470.375 69.7C469.308 67.7333 468.775 65.4 468.775 62.7C468.775 58.3 469.858 54.9 472.025 52.5C474.225 50.0667 477.358 48.85 481.425 48.85C484.225 48.85 486.475 49.45 488.175 50.65C489.908 51.85 491.175 53.6 491.975 55.9C492.775 58.2 493.158 61 493.125 64.3H473.875L473.075 59.55H486.975L485.875 61.9C485.841 59.2 485.458 57.3 484.725 56.2C483.991 55.1 482.791 54.55 481.125 54.55C480.191 54.55 479.341 54.7833 478.575 55.25C477.841 55.7167 477.258 56.5 476.825 57.6C476.425 58.6667 476.225 60.15 476.225 62.05C476.225 64.45 476.791 66.3 477.925 67.6C479.091 68.9 480.941 69.55 483.475 69.55C484.408 69.55 485.325 69.45 486.225 69.25C487.158 69.0167 488.025 68.75 488.825 68.45C489.625 68.15 490.308 67.8833 490.875 67.65V74.05C489.675 74.55 488.325 74.95 486.825 75.25C485.358 75.5833 483.641 75.75 481.675 75.75Z" fill="black"/>
<path d="M4 0H116.869V107H4V0Z" fill="white" fill-opacity="0.01"/>
<path d="M18.1087 82.4791C18.1087 65.3072 18.1087 24.5208 18.1087 24.5208C18.1087 17.134 24.4254 11.1458 32.2174 11.1458H88.6521V69.1041C88.6521 69.1041 44.5216 69.1041 32.2174 69.1041C24.4576 69.1041 18.1087 75.0877 18.1087 82.4791Z" fill="#B2D1EB" stroke="black" stroke-width="6.44" stroke-linejoin="round"/>
<path d="M88.6521 69.1041C88.6521 69.1041 34.9303 69.1041 32.2174 69.1041C24.4254 69.1041 18.1087 75.0923 18.1087 82.4791C18.1087 89.8659 24.4254 95.8541 32.2174 95.8541H102.761V15.6041" stroke="black" stroke-width="6.44" stroke-linecap="round" stroke-linejoin="round"/>
<path d="M34.5688 82.4792H86.3006" stroke="black" stroke-width="6.44" stroke-linecap="round" stroke-linejoin="round"/>
</svg>
