<svg width="134" height="52" viewBox="0 0 134 52" fill="none" xmlns="http://www.w3.org/2000/svg">
<g filter="url(#filter0_d_24_51)">
<rect x="1" y="2" width="126" height="44" rx="10" fill="#E6EBB2"/>
</g>
<path d="M39.6504 32V18.66H42.3704V29.8H48.4504V32H39.6504ZM54.8688 32.3C53.2155 32.3 51.9755 31.84 51.1488 30.92C50.3222 30 49.9088 28.6733 49.9088 26.94C49.9088 25.0867 50.3288 23.74 51.1688 22.9C52.0222 22.06 53.2488 21.64 54.8488 21.64C55.9688 21.64 56.9022 21.84 57.6488 22.24C58.3955 22.6267 58.9488 23.2133 59.3088 24C59.6822 24.7867 59.8688 25.7667 59.8688 26.94C59.8688 28.6733 59.4355 30 58.5688 30.92C57.7155 31.84 56.4822 32.3 54.8688 32.3ZM54.8688 30.22C55.4555 30.22 55.9288 30.0867 56.2888 29.82C56.6622 29.5533 56.9355 29.18 57.1088 28.7C57.2822 28.2067 57.3688 27.62 57.3688 26.94C57.3688 26.18 57.2755 25.56 57.0888 25.08C56.9155 24.6 56.6422 24.2467 56.2688 24.02C55.9088 23.7933 55.4422 23.68 54.8688 23.68C54.2822 23.68 53.8088 23.8 53.4488 24.04C53.0888 24.28 52.8222 24.64 52.6488 25.12C52.4888 25.6 52.4088 26.2067 52.4088 26.94C52.4088 28.0067 52.6022 28.82 52.9888 29.38C53.3755 29.94 54.0022 30.22 54.8688 30.22ZM66.0685 32.3C65.1218 32.2733 64.3152 32.0667 63.6485 31.68C62.9818 31.2933 62.4685 30.7333 62.1085 30C61.7618 29.2533 61.5885 28.34 61.5885 27.26C61.5885 26.1267 61.7285 25.2 62.0085 24.48C62.2885 23.7467 62.6752 23.18 63.1685 22.78C63.6752 22.3667 64.2618 22.08 64.9285 21.92C65.6085 21.76 66.3285 21.68 67.0885 21.68C67.8752 21.68 68.5685 21.78 69.1685 21.98C69.7818 22.18 70.2618 22.4733 70.6085 22.86C70.9685 23.2467 71.1485 23.74 71.1485 24.34V32.22C71.1485 32.8333 71.0485 33.3867 70.8485 33.88C70.6485 34.3867 70.3418 34.82 69.9285 35.18C69.5285 35.54 69.0218 35.8133 68.4085 36C67.7952 36.2 67.0618 36.3 66.2085 36.3C65.4218 36.3 64.7352 36.24 64.1485 36.12C63.5618 36 63.0952 35.8667 62.7485 35.72V33.46C62.9485 33.54 63.2218 33.6333 63.5685 33.74C63.9285 33.86 64.3285 33.96 64.7685 34.04C65.2085 34.12 65.6485 34.16 66.0885 34.16C66.7952 34.16 67.3285 34.0667 67.6885 33.88C68.0618 33.6933 68.3152 33.4467 68.4485 33.14C68.5818 32.8333 68.6485 32.5 68.6485 32.14V30.56L69.2285 31C69.0018 31.2533 68.7218 31.48 68.3885 31.68C68.0685 31.8667 67.7085 32.0133 67.3085 32.12C66.9218 32.24 66.5085 32.3 66.0685 32.3ZM66.6085 30.34C66.9685 30.34 67.3218 30.3 67.6685 30.22C68.0285 30.1267 68.3552 29.9933 68.6485 29.82V24.86C68.6485 24.54 68.5618 24.3067 68.3885 24.16C68.2285 24 68.0085 23.8933 67.7285 23.84C67.4618 23.7733 67.1685 23.74 66.8485 23.74C66.1418 23.74 65.5885 23.8867 65.1885 24.18C64.8018 24.4733 64.5285 24.88 64.3685 25.4C64.2085 25.92 64.1285 26.5 64.1285 27.14C64.1285 28.1133 64.3418 28.8933 64.7685 29.48C65.1952 30.0533 65.8085 30.34 66.6085 30.34ZM73.9073 32V22.02H76.4473L76.4673 32H73.9073ZM73.8473 20.42V18.34H76.5073V20.42H73.8473ZM79.316 22.76C79.596 22.6267 79.9293 22.4933 80.316 22.36C80.7027 22.2267 81.1227 22.1133 81.576 22.02C82.0293 21.9133 82.4827 21.8333 82.936 21.78C83.4027 21.7133 83.8427 21.68 84.256 21.68C85.1893 21.68 85.9627 21.8067 86.576 22.06C87.2027 22.3 87.6693 22.6867 87.976 23.22C88.296 23.74 88.456 24.4267 88.456 25.28V32H85.936V25.72C85.936 25.4667 85.9027 25.2267 85.836 25C85.7693 24.76 85.656 24.5533 85.496 24.38C85.336 24.1933 85.116 24.0533 84.836 23.96C84.556 23.8533 84.196 23.8 83.756 23.8C83.4227 23.8 83.0827 23.8333 82.736 23.9C82.3893 23.9667 82.096 24.0533 81.856 24.16V32H79.316V22.76Z" fill="black"/>
<defs>
<filter id="filter0_d_24_51" x="0" y="0" width="134" height="52" filterUnits="userSpaceOnUse" color-interpolation-filters="sRGB">
<feFlood flood-opacity="0" result="BackgroundImageFix"/>
<feColorMatrix in="SourceAlpha" type="matrix" values="0 0 0 0 0 0 0 0 0 0 0 0 0 0 0 0 0 0 127 0" result="hardAlpha"/>
<feOffset dx="3" dy="2"/>
<feGaussianBlur stdDeviation="2"/>
<feComposite in2="hardAlpha" operator="out"/>
<feColorMatrix type="matrix" values="0 0 0 0 0 0 0 0 0 0 0 0 0 0 0 0 0 0 0.5 0"/>
<feBlend mode="normal" in2="BackgroundImageFix" result="effect1_dropShadow_24_51"/>
<feBlend mode="normal" in="SourceGraphic" in2="effect1_dropShadow_24_51" result="shape"/>
</filter>
</defs>
</svg>
