<svg width="53" height="48" viewBox="0 0 53 48" fill="none" xmlns="http://www.w3.org/2000/svg">
<path d="M8.83333 44V16H15.4583V12C15.4583 9.23333 16.5353 6.87467 18.6891 4.924C20.8415 2.97467 23.4451 2 26.5 2C29.5549 2 32.1592 2.97467 34.3131 4.924C36.4655 6.87467 37.5417 9.23333 37.5417 12V16H44.1667V44H8.83333ZM19.875 16H33.125V12C33.125 10.3333 32.4809 8.91667 31.1927 7.75C29.9045 6.58333 28.3403 6 26.5 6C24.6597 6 23.0955 6.58333 21.8073 7.75C20.5191 8.91667 19.875 10.3333 19.875 12V16ZM26.5 34C27.7146 34 28.7547 33.6087 29.6204 32.826C30.4846 32.042 30.9167 31.1 30.9167 30C30.9167 28.9 30.4846 27.958 29.6204 27.174C28.7547 26.3913 27.7146 26 26.5 26C25.2854 26 24.246 26.3913 23.3818 27.174C22.5162 27.958 22.0833 28.9 22.0833 30C22.0833 31.1 22.5162 32.042 23.3818 32.826C24.246 33.6087 25.2854 34 26.5 34Z" fill="#686868"/>
</svg>
