<svg width="80" height="80" viewBox="0 0 80 80" fill="none" xmlns="http://www.w3.org/2000/svg">
<circle cx="40" cy="40" r="40" fill="#D9D9D9"/>
<path fill-rule="evenodd" clip-rule="evenodd" d="M29.809 52.714C36.654 51.714 41.367 51.8 48.221 52.749C48.7174 52.821 49.1709 53.0701 49.4979 53.4504C49.8249 53.8307 50.0033 54.3165 50 54.818C50 55.298 49.835 55.764 49.537 56.128C49.0176 56.7626 48.4855 57.3868 47.941 58H50.582C50.748 57.802 50.915 57.6 51.084 57.395C51.6772 56.6676 52.0007 55.7576 52 54.819C52 52.794 50.522 51.049 48.495 50.769C41.479 49.798 36.575 49.705 29.52 50.736C27.472 51.035 26 52.807 26 54.846C26 55.751 26.295 56.646 26.854 57.371C27.019 57.585 27.182 57.795 27.344 58.001H29.921C29.4144 57.3945 28.9203 56.7777 28.439 56.151C28.153 55.7758 27.9987 55.3168 28 54.845C28 53.768 28.774 52.865 29.809 52.714ZM39 43C39.7879 43 40.5681 42.8448 41.2961 42.5433C42.0241 42.2417 42.6855 41.7998 43.2426 41.2426C43.7998 40.6855 44.2417 40.0241 44.5433 39.2961C44.8448 38.5681 45 37.7879 45 37C45 36.2121 44.8448 35.4319 44.5433 34.7039C44.2417 33.9759 43.7998 33.3145 43.2426 32.7574C42.6855 32.2002 42.0241 31.7583 41.2961 31.4567C40.5681 31.1552 39.7879 31 39 31C37.4087 31 35.8826 31.6321 34.7574 32.7574C33.6321 33.8826 33 35.4087 33 37C33 38.5913 33.6321 40.1174 34.7574 41.2426C35.8826 42.3679 37.4087 43 39 43ZM39 45C41.1217 45 43.1566 44.1571 44.6569 42.6569C46.1571 41.1566 47 39.1217 47 37C47 34.8783 46.1571 32.8434 44.6569 31.3431C43.1566 29.8429 41.1217 29 39 29C36.8783 29 34.8434 29.8429 33.3431 31.3431C31.8429 32.8434 31 34.8783 31 37C31 39.1217 31.8429 41.1566 33.3431 42.6569C34.8434 44.1571 36.8783 45 39 45Z" fill="black"/>
<path fill-rule="evenodd" clip-rule="evenodd" d="M39 60C48.941 60 57 51.941 57 42C57 32.059 48.941 24 39 24C29.059 24 21 32.059 21 42C21 51.941 29.059 60 39 60ZM39 62C50.046 62 59 53.046 59 42C59 30.954 50.046 22 39 22C27.954 22 19 30.954 19 42C19 53.046 27.954 62 39 62Z" fill="black"/>
</svg>
