<svg width="46" height="45" viewBox="0 0 46 45" fill="none" xmlns="http://www.w3.org/2000/svg">
<path d="M23 22.5C19.8375 22.5 17.1302 21.3984 14.8781 19.1953C12.626 16.9922 11.5 14.3438 11.5 11.25C11.5 8.15625 12.626 5.50781 14.8781 3.30469C17.1302 1.10156 19.8375 0 23 0C26.1625 0 28.8698 1.10156 31.1219 3.30469C33.374 5.50781 34.5 8.15625 34.5 11.25C34.5 14.3438 33.374 16.9922 31.1219 19.1953C28.8698 21.3984 26.1625 22.5 23 22.5ZM0 45V37.125C0 35.5313 0.419751 34.0659 1.25925 32.7291C2.09875 31.3922 3.21233 30.3731 4.6 29.6719C7.57083 28.2188 10.5896 27.1284 13.6562 26.4009C16.7229 25.6734 19.8375 25.3106 23 25.3125C26.1625 25.3125 29.2771 25.6762 32.3437 26.4037C35.4104 27.1312 38.4292 28.2206 41.4 29.6719C42.7896 30.375 43.9041 31.395 44.7436 32.7319C45.5831 34.0687 46.0019 35.5331 46 37.125V45H0Z" fill="#686868"/>
</svg>
